<?xml version="1.0" encoding="UTF-8"?>
<svg id="Layer_2" data-name="Layer 2" xmlns="http://www.w3.org/2000/svg" viewBox="0 0 98.93 120.9">
  <defs>
    <style>
      .cls-1 {
        fill: #fff;
      }
    </style>
  </defs>
  <g id="Layer_1-2" data-name="Layer 1">
    <g>
      <path class="cls-1" d="M49.46,99.03c-14.3,0-28.6,0-42.9,0-1.86,0-3.58-.37-4.94-1.74-2.2-2.22-2.17-5.69,.14-8.08,2.56-2.64,5.16-5.25,7.82-7.8,.94-.9,1.33-1.83,1.32-3.14-.05-9.55-.11-19.09,0-28.64,.12-10.71,3.92-19.98,11.54-27.56,5.58-5.56,12.35-8.99,20.08-10.44,.99-.19,1.28-.58,1.25-1.51-.04-1.45-.05-2.91,0-4.37C43.91,2.43,46.33,0,49.46,0c3.13,0,5.55,2.43,5.68,5.78,.06,1.45,.05,2.91,0,4.37-.03,.93,.28,1.3,1.26,1.5,14.37,3.03,24.21,11.42,29.41,25.17,1.6,4.24,2.21,8.7,2.22,13.22,.03,9.46,.03,18.92-.01,28.38,0,1.16,.3,2.01,1.14,2.82,2.59,2.49,5.08,5.09,7.65,7.6,1.94,1.89,2.67,4.1,1.66,6.64-1.03,2.59-3.21,3.54-5.86,3.54-14.38,0-28.77,0-43.15,0Zm29.67-11.48c.02-.13,.04-.18,.03-.21-.06-.11-.1-.24-.19-.32-1.92-1.71-2.36-3.91-2.34-6.39,.06-10.15,.03-20.29,.02-30.44,0-1.54-.03-3.07-.23-4.61-2.17-16.29-19.11-27.04-34.81-22.21-11.35,3.5-19.5,14.27-19.35,26.2,.12,10.23-.02,20.46,.06,30.7,.02,2.7-.42,5.1-2.52,6.97-.04,.04,0,.16,0,.3h59.35Z"/>
      <path class="cls-1" d="M49.46,109.69c3.25,0,6.5,.04,9.74-.02,1.2-.02,1.47,.46,1.3,1.54-.92,5.64-5.51,9.68-11.05,9.68-5.53,0-10.16-4.08-11.04-9.69-.17-1.09,.12-1.56,1.31-1.53,3.25,.06,6.49,.02,9.74,.02Z"/>
    </g>
  </g>
</svg>