<?xml version="1.0" encoding="UTF-8"?>
<svg id="Layer_2" data-name="Layer 2" xmlns="http://www.w3.org/2000/svg" viewBox="0 0 148.07 117.06">
  <defs>
    <style>
      .cls-1 {
        fill: #fff;
      }
    </style>
  </defs>
  <g id="Layer_1-2" data-name="Layer 1">
    <path class="cls-1" d="M148.07,52.46c-.85,1.56-2.19,2.46-3.85,3.06-2.94,1.06-5.82,2.3-8.76,3.35-1.15,.41-1.52,1.03-1.51,2.23,.04,10.16,.03,20.31,.02,30.47,0,3.53-.89,4.8-4.23,6-17.65,6.36-35.3,12.7-52.94,19.07-1.41,.51-2.76,.6-4.21,.08-17.82-6.45-35.65-12.86-53.48-19.29-2.99-1.08-3.91-2.38-3.92-5.63-.02-9.87,0-19.73-.01-29.6q0-2.36-2.16-3.21c-3.18-1.24-6.38-2.45-9.55-3.7-3.37-1.32-4.38-4.07-2.6-7.18,4.91-8.61,9.85-17.2,14.77-25.81,.76-1.33,1.9-2.1,3.32-2.61,12.81-4.6,25.62-9.22,38.42-13.84,5.02-1.81,10.05-3.61,15.07-5.44,1.42-.52,2.78-.56,4.21-.04,17.51,6.44,35.03,12.87,52.56,19.28,1.63,.6,2.77,1.58,3.63,3.09,5.05,8.86,10.14,17.7,15.22,26.55v3.18Zm-68.66,9.77c-.11,.01-.21,.02-.32,.04v1.4c0,13.42,0,26.85,0,40.27,0,2.27,0,2.28,2.17,1.49,14.07-5.07,28.13-10.16,42.21-15.19,1.12-.4,1.43-.98,1.42-2.11-.04-7.84-.02-15.69-.02-23.53,0-1.6,0-1.6-1.48-1.03-10.31,4-20.62,8-30.93,12.01-3.46,1.34-5.36,.64-7.14-2.62-1.96-3.58-3.94-7.15-5.92-10.73Zm-9.41-.8c-.08-.03-.17-.07-.25-.1-.2,.32-.42,.62-.6,.95-2.08,3.58-4.15,7.16-6.23,10.73-1.94,3.33-3.67,3.91-7.31,2.5-9.86-3.83-19.73-7.66-29.59-11.49-1.76-.68-1.77-.68-1.77,1.16,0,7.51,.04,15.01-.04,22.52-.02,1.51,.46,2.17,1.88,2.68,14.09,5.01,28.15,10.09,42.22,15.16,1.68,.61,1.69,.62,1.69-1.25,0-8.9,0-17.81,0-26.71,0-5.39,0-10.77,0-16.16ZM33.23,24.14c.48,.25,.64,.36,.82,.42,13.11,4.75,26.22,9.49,39.32,14.26,.88,.32,1.66,.23,2.51-.09,12.59-4.64,25.18-9.27,37.77-13.91,.41-.15,.98-.12,1.18-.76-.31-.14-.61-.29-.91-.4-12.69-4.65-25.38-9.29-38.05-13.96-.93-.34-1.72-.31-2.62,.02-8.5,3.09-17,6.14-25.51,9.2-4.74,1.71-9.48,3.41-14.5,5.22Zm34.36,22.73c-.06-.75-.66-.8-1.13-.97-14.46-5.25-28.92-10.48-43.38-15.74-.94-.34-1.45-.22-1.96,.69-3.11,5.53-6.27,11.04-9.46,16.53-.51,.87-.51,1.24,.52,1.64,14.31,5.52,28.6,11.07,42.89,16.64,.97,.38,1.54,.29,2.1-.69,3.27-5.72,6.6-11.4,9.91-17.1,.19-.33,.35-.68,.51-.99Zm69.43,1.34c-.13-.23-.27-.48-.41-.73-3.18-5.55-6.38-11.09-9.51-16.66-.54-.96-1.08-.95-1.98-.62-14.2,5.25-28.41,10.48-42.63,15.68-1.13,.41-1.4,.76-.76,1.9,3.14,5.57,6.24,11.17,9.26,16.8,.68,1.26,1.3,1.43,2.6,.91,7.51-2.98,15.05-5.87,22.58-8.79,6.59-2.56,13.18-5.11,19.76-7.68,.41-.16,.99-.15,1.1-.82Z"/>
  </g>
</svg>