<?xml version="1.0" encoding="UTF-8"?>
<svg id="Layer_2" data-name="Layer 2" xmlns="http://www.w3.org/2000/svg" viewBox="0 0 110.52 110.48">
  <defs>
    <style>
      .cls-1 {
        fill: #fff;
      }
    </style>
  </defs>
  <g id="Layer_1-2" data-name="Layer 1">
    <g>
      <path class="cls-1" d="M60.28,84.74c-10.27,0-20.53-.09-30.8,.04-4.48,.06-10.22-3.15-11.04-9.57-.77-6.05,2.93-11.2,8.75-12.43,.97-.2,1.12-.57,.9-1.49-3.29-13.84-6.53-27.7-9.79-41.55-.87-3.69-1.77-7.36-2.59-11.06-.2-.88-.56-1.19-1.46-1.18-3.41,.04-6.82,.02-10.23,.01C1.57,7.51,0,6.03,0,3.77,0,1.49,1.55,0,3.98,0c4.75,0,9.5,0,14.25,0,2.16,0,3.45,.96,3.98,3.08,.85,3.41,1.68,6.84,2.41,10.28,.23,1.1,.71,1.38,1.78,1.38,24.25-.03,48.49-.02,72.74-.02,5.68,0,9.96,3.43,11.16,8.99,.36,1.67,.26,3.35-.13,5.01-2.57,10.91-5.12,21.82-7.74,32.72-1.28,5.32-5.54,8.59-11.02,8.59-20.19,0-40.37,0-60.56,0-.77,0-1.53,.01-2.28,.21-1.49,.4-2.63,1.85-2.63,3.39,0,1.52,1.15,2.99,2.63,3.39,.75,.2,1.51,.22,2.28,.22,20.3,0,40.6,0,60.9,0,2.43,0,4,1.49,4,3.75,0,2.19-1.54,3.74-3.77,3.75-5.48,.02-10.95,0-16.43,0-5.09,0-10.19,0-15.28,0Zm3.23-62.51c-11.8,0-23.59,0-35.39,0-.74,0-1.47-.17-1.16,1.11,3.03,12.69,6.02,25.38,8.99,38.08,.2,.83,.55,1.11,1.4,1.11,17.85-.02,35.69,0,53.54-.02,2.52,0,3.69-.99,4.27-3.45,1.99-8.41,3.97-16.82,5.96-25.24,.53-2.23,1.09-4.46,1.56-6.7,.61-2.89-.95-4.81-3.89-4.89-.38-.01-.77,0-1.15,0-11.37,0-22.75,0-34.12,0Z"/>
      <path class="cls-1" d="M29.42,99.32c0-6.25,4.88-11.07,11.19-11.07,6.24,0,11.04,4.89,11.03,11.21,0,6.23-4.9,11.02-11.24,11.01-6.16,0-10.99-4.91-10.98-11.15Zm11.08,3.55c1.96,0,3.62-1.65,3.57-3.57-.04-1.86-1.73-3.52-3.57-3.49-1.88,.03-3.51,1.67-3.52,3.54,0,1.88,1.63,3.52,3.51,3.51Z"/>
      <path class="cls-1" d="M92.08,99.4c0,6.26-4.87,11.08-11.18,11.07-6.24,0-11.06-4.89-11.04-11.2,.01-6.23,4.91-11.03,11.24-11.02,6.17,0,10.99,4.9,10.98,11.15Zm-11.14,3.47c1.96,0,3.61-1.66,3.57-3.57-.04-1.87-1.74-3.51-3.57-3.48-1.88,.04-3.51,1.68-3.51,3.54,0,1.88,1.63,3.52,3.51,3.51Z"/>
    </g>
  </g>
</svg>