<?xml version="1.0" encoding="UTF-8"?>
<svg id="Layer_2" data-name="Layer 2" xmlns="http://www.w3.org/2000/svg" viewBox="0 0 100.6 105.88">
  <g id="Layer_1-2" data-name="Layer 1">
    <g>
      <path d="M16.88,15.45c4.22,0,8.44-.03,12.67,.02,1.07,.01,1.37-.33,1.37-1.38,0-2-.26-4.02,.2-6.01C32.2,3.4,36.32,.05,41.13,.03c6.11-.03,12.22-.04,18.33,0,5.64,.04,10.18,4.64,10.2,10.25,0,1.17,0,2.33,0,3.5q0,1.68,1.74,1.68c8.2,0,16.4,.01,24.61,0,1.07,0,2.08,.15,2.96,.81,1.37,1.04,1.94,2.79,1.45,4.41-.5,1.64-2,2.76-3.94,2.84-1.65,.06-3.3,.08-4.94,0-1.1-.05-1.54,.37-1.59,1.42-.15,2.77-.32,5.53-.49,8.3-.39,6.17-.79,12.34-1.17,18.51-.27,4.29-.5,8.58-.77,12.86-.38,5.93-.78,11.86-1.16,17.78-.18,2.8-.41,5.61-.51,8.42-.29,8.07-7.27,15.01-15.35,15.04-13.39,.05-26.78,.05-40.17,0-8.01-.03-14.9-6.75-15.38-14.75-.48-7.85-1.09-15.7-1.61-23.55-.37-5.57-.66-11.14-1.03-16.71-.44-6.61-.92-13.21-1.37-19.82-.13-1.96-.25-3.93-.3-5.9-.03-1.14-.41-1.68-1.65-1.61-1.52,.09-3.05,.04-4.58,.01C1.73,23.49-.01,21.86,0,19.45c.01-2.42,1.74-3.98,4.46-3.98,4.14,0,8.28,0,12.42,0,0,0,0,0,0,0ZM50.29,97.78h0c6.64,0,13.27,.02,19.91-.02,3.82-.02,6.97-2.73,7.54-6.5,.38-2.54,.37-5.12,.53-7.69,.36-5.77,.77-11.54,1.13-17.31,.28-4.53,.52-9.06,.79-13.59,.38-6.13,.77-12.26,1.16-18.39,.19-3.01,.35-6.01,.58-9.02,.12-1.48,.18-1.48-1.33-1.49-9.81-.07-19.62-.17-29.43-.2-10.33-.04-20.67-.02-31.01-.03-.81,0-1.52-.08-1.43,1.15,.29,4.17,.5,8.34,.76,12.51,.38,6.09,.79,12.18,1.15,18.27,.29,4.81,.5,9.62,.78,14.44,.38,6.61,.85,13.22,1.16,19.84,.26,5.47,4.49,8.15,8.28,8.06,6.47-.15,12.95-.04,19.42-.04Zm-.14-82.33c3.5,0,7-.02,10.5,.01,.82,0,1.17-.24,1.14-1.1-.05-1.2,.03-2.42-.04-3.62-.09-1.64-.9-2.39-2.55-2.39-5.95-.01-11.91-.01-17.86,0-1.65,0-2.45,.75-2.55,2.39-.07,1.16,.03,2.34-.04,3.5-.06,.98,.33,1.24,1.26,1.23,3.38-.04,6.76-.02,10.14-.02Z"/>
      <path d="M38.77,60.67c0,6.87,0,13.75,0,20.62,0,2.03-1.33,3.53-3.39,3.92-1.59,.31-3.49-.77-4.2-2.38-.24-.53-.29-1.08-.29-1.65,0-13.71,0-27.41,0-41.12,0-2.28,1.74-4.03,3.92-4.04,2.17-.01,3.95,1.77,3.95,4.02,.01,6.87,0,13.75,0,20.62Z"/>
      <path d="M54.22,60.65c0,6.87,0,13.75,0,20.62,0,2.05-1.31,3.53-3.37,3.94-1.6,.31-3.49-.75-4.22-2.35-.24-.53-.29-1.08-.29-1.65,0-13.71,0-27.41,0-41.12,0-2.29,1.71-4.03,3.91-4.06,2.21-.03,3.97,1.78,3.97,4.12,.01,6.83,0,13.67,0,20.5Z"/>
      <path d="M61.78,60.56c0-6.83,0-13.67,0-20.5,0-2.08,1.26-3.53,3.34-3.95,1.63-.33,3.5,.69,4.24,2.31,.24,.53,.3,1.07,.3,1.64,0,13.71,0,27.41,0,41.12,0,2.32-1.82,4.16-4,4.11-2.17-.05-3.87-1.83-3.88-4.11-.01-6.87,0-13.75,0-20.62Z"/>
    </g>
  </g>
</svg>