<?xml version="1.0" encoding="UTF-8"?>
<svg id="Layer_2" data-name="Layer 2" xmlns="http://www.w3.org/2000/svg" viewBox="0 0 133.32 133.31">
  <g id="Layer_1-2" data-name="Layer 1">
    <g>
      <path d="M11.85,133.31c-3.46-.84-6.47-2.43-8.71-5.29C1.09,125.41,.04,122.47,.04,119.12,.06,87.48,.12,55.84,0,24.19c-.03-7.14,5.49-14.73,14.75-14.74,16.04-.03,32.08,0,48.12,0,2.82,0,5.64-.06,8.45,.02,3.93,.12,6.24,3.93,4.47,7.25-.74,1.39-1.89,2.25-3.46,2.47-.94,.13-1.9,.19-2.85,.19-18.03,.01-36.07,.01-54.1,0-1.65,0-3.2,.15-4.38,1.51-.71,.82-1.13,1.73-1.16,2.82,0,.09,0,.17,0,.26,0,31.64,0,63.29,0,94.93,0,2.82,1.92,4.71,4.78,4.71,28.39,.01,56.79,.01,85.18,0,2.92,0,4.82-1.97,4.82-4.96,0-15.39,0-30.78,0-46.16,0-.82-.02-1.64,.24-2.44,.78-2.38,2.91-3.72,5.47-3.38,2.25,.3,4.05,2.31,4.06,4.7,.03,5.98,.01,11.96,.02,17.95,0,9.71,0,19.42,0,29.13,0,7.42-4.05,12.72-11.18,14.67-.21,.06-.41,.14-.61,.21H11.85Z"/>
      <path d="M133.32,21.21c-.89,4.74-3.46,8.44-6.85,11.81-20.1,19.98-40.12,40.05-60.14,60.1-1.13,1.13-2.39,1.95-3.91,2.45-8.84,2.92-17.67,5.87-26.5,8.82-1.22,.41-2.44,.6-3.7,.34-2.39-.5-4.18-3.09-3.55-5.53,.71-2.76,1.69-5.46,2.59-8.17,2.23-6.74,4.5-13.47,6.73-20.22,.43-1.3,1.09-2.42,2.07-3.4C60.65,46.83,81.23,26.23,101.84,5.65c8.42-8.4,21.75-7.29,28.4,2.3,1.58,2.28,2.49,4.83,3.07,7.52v5.72ZM41.33,91.96c.67,.1,1.06-.12,1.46-.25,5.01-1.67,10.02-3.36,15.04-5,1.02-.33,1.85-.85,2.61-1.61,19.96-19.99,39.94-39.97,59.92-59.95,.46-.46,.92-.92,1.33-1.43,2.36-2.91,2.58-6.74,.59-9.94-1.85-2.97-5.51-4.46-9.02-3.7-1.99,.43-3.51,1.58-4.92,2.99-18.71,18.73-37.38,37.5-56.22,56.11-3.4,3.36-5.93,6.92-7.13,11.57-.96,3.76-2.4,7.4-3.66,11.2Z"/>
    </g>
  </g>
</svg>