<?xml version="1.0" encoding="UTF-8"?>
<svg id="Layer_2" data-name="Layer 2" xmlns="http://www.w3.org/2000/svg" viewBox="0 0 106.46 106.44">
  <defs>
    <style>
      .cls-1 {
        fill: #fff;
      }
    </style>
  </defs>
  <g id="Layer_1-2" data-name="Layer 1">
    <path class="cls-1" d="M85.57,106.44h-20.15c-1.58-.77-2.18-2.04-2.17-3.79,.04-8.03,.03-16.06,.01-24.09,0-3.15-2.13-5.28-5.27-5.3-3.12-.02-6.24,.1-9.34-.03-3.55-.16-5.66,2.7-5.62,5.64,.1,7.93,.01,15.85,.05,23.78,0,1.74-.59,3.02-2.17,3.79H20.77c-.36-.11-.73-.22-1.09-.33-4.12-1.27-6.79-3.99-8.01-8.11-.42-1.4-.46-2.86-.46-4.31,0-9.44,0-18.88,0-28.32,0-.35-.02-.69,0-1.04,.03-.72-.27-1.08-1.03-1.11-.79-.03-1.6-.08-2.37-.26-4.24-.97-6.75-3.69-7.81-7.83v-3.74c.54-2.38,1.84-4.26,3.56-5.97C17.5,31.52,31.42,17.59,45.35,3.67c.51-.51,1.03-1.03,1.6-1.48C48.61,.84,50.5,.12,52.66,.01c3.24-.16,5.82,1.12,8.06,3.37,14.08,14.11,28.19,28.2,42.28,42.3,.44,.44,.87,.89,1.26,1.38,1.88,2.35,2.56,5.06,2.01,7.99-.88,4.66-4.34,7.66-9.13,8.08q-2.02,.18-2.02,2.18c0,9.45,0,18.9,0,28.35,0,2.7-.37,5.3-1.91,7.63-1.84,2.78-4.45,4.38-7.63,5.15Z"/>
  </g>
</svg>