<?xml version="1.0" encoding="UTF-8"?>
<svg id="Layer_2" data-name="Layer 2" xmlns="http://www.w3.org/2000/svg" viewBox="0 0 131.12 131.11">
  <defs>
    <style>
      .cls-1 {
        stroke: #231f20;
        stroke-miterlimit: 10;
        stroke-width: 4px;
      }
    </style>
  </defs>
  <g id="Layer_1-2" data-name="Layer 1">
    <g>
      <path class="cls-1" d="M100.83,117.04c-1.91,.07-3.52-.68-4.99-1.92-1.42-1.21-2.6-2.74-4.54-3.26-2.96-.8-9.59,1.84-11.13,4.5-.75,1.3-.95,2.73-.92,4.21,.04,1.65-.14,3.25-.97,4.72-1.38,2.43-3.44,3.78-6.25,3.8-4.15,.03-8.31,.01-12.46,0-4.48,0-7.56-3.02-7.7-7.53-.04-1.15,.04-2.3-.24-3.45-.47-1.92-1.58-3.33-3.33-4.16-1.5-.72-3.06-1.33-4.62-1.92-2.39-.9-4.54-.4-6.43,1.28-.74,.65-1.45,1.33-2.2,1.97-2.89,2.48-7.11,2.44-9.83-.19-3.14-3.04-6.23-6.13-9.26-9.27-2.58-2.67-2.61-6.9-.19-9.73,.61-.72,1.25-1.41,1.88-2.1,1.89-2.07,2.34-4.4,1.26-7-.49-1.19-.99-2.37-1.48-3.56-1.15-2.82-3.3-4.15-6.3-4.19-1.11-.02-2.22,0-3.32-.24-3.39-.71-5.79-3.57-5.81-7.03-.02-4.2-.01-8.39,0-12.59,0-4.23,3.06-7.37,7.3-7.53,1.24-.05,2.48,.05,3.7-.25,1.82-.45,3.21-1.48,4.02-3.13,.81-1.65,1.51-3.36,2.11-5.09,.79-2.26,.24-4.3-1.31-6.08-.68-.77-1.38-1.52-2.05-2.3-2.46-2.87-2.4-7.1,.24-9.82,3.01-3.1,6.07-6.16,9.17-9.17,2.72-2.64,6.95-2.7,9.83-.23,.78,.67,1.52,1.38,2.3,2.06,1.83,1.59,3.91,2.1,6.21,1.27,1.65-.6,3.29-1.24,4.86-2.02,2.39-1.18,3.38-3.28,3.47-5.86,.04-1.19-.03-2.39,.25-3.58,.8-3.32,3.64-5.63,7.04-5.65,4.2-.01,8.39-.01,12.59,0,4.22,0,7.35,3.08,7.5,7.33,.04,1.24-.05,2.48,.25,3.7,.44,1.77,1.43,3.15,3.04,3.94,1.68,.83,3.43,1.55,5.21,2.17,2.26,.79,4.3,.22,6.08-1.34,.77-.68,1.51-1.39,2.3-2.05,2.93-2.46,7.09-2.38,9.82,.27,3.1,3.01,6.16,6.07,9.17,9.17,2.63,2.72,2.67,6.95,.2,9.83-.64,.75-1.32,1.46-1.97,2.2-1.68,1.89-2.18,4.03-1.29,6.43,.51,1.36,1.1,2.69,1.65,4.04,1.13,2.79,3.29,4.03,6.21,4.14,1.15,.04,2.3-.03,3.45,.23,3.41,.79,5.73,3.59,5.75,7.09,.03,4.15,.03,8.31,0,12.46-.02,4.35-3,7.4-7.36,7.6-1.19,.05-2.39-.04-3.58,.24-1.83,.43-3.24,1.43-4.05,3.08-.83,1.68-1.54,3.44-2.16,5.21-.77,2.21-.23,4.22,1.28,5.97,.73,.84,1.51,1.63,2.22,2.49,2.33,2.84,2.24,6.98-.31,9.63-3.03,3.14-6.15,6.21-9.26,9.27-1.37,1.35-3.07,1.99-5.05,1.92Zm.02-3.79c.86-.13,1.73-.34,2.41-1.02,3-3,6.03-5.96,8.98-9,1.34-1.38,1.29-3.15,.05-4.65-.57-.69-1.2-1.34-1.8-2.01-2.21-2.47-3.3-5.32-2.6-8.62,.64-2.98,1.89-5.76,3.45-8.38,.19-.33,.48-.6,.73-.89,2.39-2.69,5.54-3.35,8.94-3.42,3.09-.06,4.3-1.31,4.32-4.44,.02-3.17-.08-6.34,.03-9.5,.13-3.73-1.02-5.69-5.23-5.58-4.52,.12-7.99-1.96-9.92-6.21-.64-1.4-1.21-2.83-1.76-4.27-1.53-4.04-.76-7.64,2.12-10.82,.6-.67,1.22-1.32,1.79-2.02,1.18-1.46,1.2-3.19-.11-4.54-2.95-3.04-5.95-6.04-8.99-8.99-1.41-1.37-3.09-1.35-4.64-.1-.76,.62-1.45,1.33-2.2,1.97-2.44,2.08-5.22,3.15-8.42,2.47-3.03-.65-5.84-1.9-8.49-3.5-.29-.18-.53-.43-.79-.65-2.85-2.47-3.41-5.79-3.46-9.31-.03-2.46-1.2-3.86-3.62-3.93-4.06-.12-8.14-.13-12.2,0-2.38,.08-3.51,1.46-3.58,3.84-.01,.39-.02,.77-.03,1.16-.13,4.57-1.94,8.1-6.25,10.06-1.4,.64-2.83,1.22-4.27,1.76-4.03,1.51-7.64,.77-10.83-2.1-.67-.6-1.32-1.22-2.02-1.79-1.49-1.21-3.16-1.25-4.53,.08-3.08,2.98-6.1,6.01-9.08,9.08-1.31,1.36-1.27,3.07-.06,4.54,.62,.76,1.31,1.47,1.96,2.2,1.3,1.47,2.27,3.14,2.49,5.12,.55,4.92-1.54,9.04-4.37,12.74-2.11,2.76-5.39,3.37-8.69,3.28-3.04-.08-4.44,1.67-4.4,4.53,.05,3.08,.11,6.17-.01,9.25-.15,3.88,.92,5.86,5.29,5.78,5.13-.09,8.64,2.55,10.36,7.45,.34,.97,.8,1.89,1.18,2.85,1.61,4.12,.86,7.79-2.1,11.05-.6,.67-1.23,1.32-1.79,2.02-1.11,1.4-1.19,3.06,.03,4.33,3.03,3.15,6.12,6.23,9.26,9.27,1.29,1.24,3.03,1.17,4.44,.02,.76-.62,1.47-1.31,2.21-1.96,1.47-1.31,3.13-2.28,5.11-2.51,4.92-.57,9.04,1.51,12.75,4.34,2.78,2.11,3.37,5.39,3.3,8.69-.07,3.07,1.62,4.48,4.63,4.44,3.08-.05,6.17-.1,9.25,.01,3.95,.15,5.74-1.1,5.67-5.28-.09-5.14,2.54-8.64,7.43-10.38,.97-.34,1.89-.8,2.85-1.17,4.01-1.57,7.63-.9,10.86,1.91,.74,.64,1.46,1.32,2.2,1.97,.6,.52,1.33,.75,2.15,.86Z"/>
      <path class="cls-1" d="M98.77,65.56c0,18.3-14.96,33.22-33.29,33.2-18.22-.01-33.14-14.97-33.14-33.23,0-18.31,14.95-33.21,33.29-33.2,18.23,.01,33.14,14.97,33.14,33.23Zm-62.45-.06c-.26,15.91,13.14,29.27,29.12,29.34,16.05,.06,29.37-13.28,29.4-29.24,.03-16-13.27-29.28-29.17-29.33-16.11-.05-29.55,13.33-29.35,29.23Z"/>
    </g>
  </g>
</svg>