<?xml version="1.0" encoding="UTF-8"?>
<svg id="Layer_2" data-name="Layer 2" xmlns="http://www.w3.org/2000/svg" viewBox="0 0 38.04 38.01">
  <defs>
    <style>
      .cls-1 {
        fill: #ffffff;
      }
    </style>
  </defs>
  <path class="cls-1" d="M14.88,37.58c-.68-.18-1.41-.33-2.09-.59-.2-.08-.4-.48-.39-.72,.14-3.12,.32-6.25,.47-9.37,.08-1.59,.14-3.17,.16-4.76,0-.21-.25-.54-.46-.62-1.93-.76-2.72-2.24-2.73-4.22-.01-2.72-.02-5.44-.02-8.16,0-1.05-.05-1.09-1.23-.86v.89c0,2.65,.03,5.3,0,7.94-.03,2.33,.78,4.15,2.87,5.32,.17,.1,.3,.43,.3,.65-.01,.94-.09,1.87-.13,2.81-.15,3.27-.29,6.54-.44,9.81,0,.14-.04,.28-.08,.55-1.75-.72-3.23-1.73-4.6-2.92C3.08,30.35,.94,26.61,.25,22.14-1.53,10.58,6.54,2.58,13.97,.68,19.44-.72,24.61,.04,29.37,3.07c3.81,2.43,6.42,5.91,7.77,10.21,3.02,9.6-2,18.5-8.54,22.06-.03-.29-.08-.53-.08-.77V11.1c0-1.06-.02-2.12,0-3.18,0-.46-.16-.62-.63-.64-1.33-.06-2.25,.64-2.98,1.6-1.25,1.65-2.01,3.55-2.43,5.56-.53,2.56-1.01,5.13-1.37,7.72-.25,1.78-.25,3.6-.38,5.4-.04,.54,.18,.73,.7,.71,.79-.03,1.59,.01,2.38,0,.51-.01,.73,.17,.73,.71-.02,2.55-.01,5.1,0,7.66,0,.46-.18,.66-.64,.78-2.31,.63-4.65,.67-7.01,.52-.45-.03-.47-.29-.49-.63-.07-1.1-.17-2.21-.22-3.31-.17-3.63-.32-7.26-.45-10.89,0-.24,.2-.6,.42-.73,1.74-1.1,2.68-2.65,2.7-4.71,.03-2.94,0-5.87,.01-8.81,0-.47-.11-.69-.65-.7-.59,0-.66,.28-.66,.76,.01,2.96,0,5.92,0,8.88,0,1.64-1.01,3.11-2.54,3.67-.48,.17-.68,.42-.65,.95,.19,3.31,.38,6.63,.51,9.95,.07,1.72,.01,3.45,.01,5.23v-.02Zm-2.95-24.1v-4.54c0-.33,.11-.78-.48-.77-.54,.01-.43,.43-.43,.74v9.01c0,.33-.13,.8,.44,.81,.62,0,.46-.51,.47-.85,.02-1.47,0-2.93,0-4.4Zm3.59-5.29v10c0,.51,.28,.66,.69,.48,.13-.06,.19-.41,.19-.62,.01-3.1,0-6.19,0-9.29,0-.18-.05-.37-.07-.57h-.81Zm-1.4,5.24h0c0-1.56,.02-3.12-.02-4.68,0-.2-.27-.39-.41-.58-.14,.2-.41,.39-.41,.59-.02,3.1-.02,6.2,0,9.29,0,.22,.29,.45,.44,.67,.14-.23,.38-.45,.39-.68,.03-1.54,.02-3.07,.02-4.61h-.01Z"/>
  <path class="cls-1" d="M27.06,8.75c.05,.37,.12,.66,.12,.96v25.64c0,.98-.12,1.1-1.26,1.22-.03-.33-.07-.65-.07-.97v-7.65c0-.97-.02-.98-.95-.98-.77,0-1.54-.02-2.31,0-.46,.01-.68-.15-.62-.63,.35-2.74,.67-5.48,1.04-8.21,.34-2.48,.96-4.89,2.08-7.15,.43-.87,.89-1.76,1.98-2.21v-.02Z"/>
</svg>